<svg width="18" height="18" viewBox="0 0 18 18" fill="none" xmlns="http://www.w3.org/2000/svg">
<path d="M12.75 9.00001C12.75 9.00001 12.75 8.95501 12.75 8.93251C12.7466 8.86052 12.7314 8.78958 12.705 8.72251C12.6849 8.67107 12.6571 8.62301 12.6225 8.58001C12.6026 8.54577 12.58 8.51317 12.555 8.48251L10.41 6.23251C10.342 6.1611 10.2607 6.10378 10.1706 6.06381C10.0805 6.02385 9.98336 6.00203 9.88481 5.99959C9.68579 5.99467 9.49296 6.06901 9.34875 6.20626C9.20454 6.34351 9.12076 6.53242 9.11583 6.73144C9.11091 6.93047 9.18525 7.12329 9.3225 7.26751L10.245 8.25001H6C5.80109 8.25001 5.61032 8.32902 5.46967 8.46968C5.32902 8.61033 5.25 8.80109 5.25 9.00001C5.25 9.19892 5.32902 9.38968 5.46967 9.53034C5.61032 9.67099 5.80109 9.75001 6 9.75001H10.1925L9.2175 10.7175C9.1472 10.7872 9.09141 10.8702 9.05333 10.9616C9.01526 11.053 8.99565 11.151 8.99565 11.25C8.99565 11.349 9.01526 11.447 9.05333 11.5384C9.09141 11.6298 9.1472 11.7128 9.2175 11.7825C9.28722 11.8528 9.37017 11.9086 9.46157 11.9467C9.55296 11.9848 9.65099 12.0044 9.75 12.0044C9.84901 12.0044 9.94704 11.9848 10.0384 11.9467C10.1298 11.9086 10.2128 11.8528 10.2825 11.7825L12.5325 9.53251C12.6 9.46339 12.6534 9.3819 12.69 9.29251C12.7294 9.20001 12.7498 9.10054 12.75 9.00001Z" fill="#DF921E"/>
<path d="M9 1.5C7.51664 1.5 6.0666 1.93987 4.83323 2.76398C3.59986 3.58809 2.63856 4.75943 2.07091 6.12987C1.50325 7.50032 1.35472 9.00832 1.64411 10.4632C1.9335 11.918 2.64781 13.2544 3.6967 14.3033C4.7456 15.3522 6.08197 16.0665 7.53683 16.3559C8.99168 16.6453 10.4997 16.4968 11.8701 15.9291C13.2406 15.3614 14.4119 14.4001 15.236 13.1668C16.0601 11.9334 16.5 10.4834 16.5 9C16.5 8.01509 16.306 7.03982 15.9291 6.12987C15.5522 5.21993 14.9997 4.39314 14.3033 3.6967C13.6069 3.00026 12.7801 2.44781 11.8701 2.0709C10.9602 1.69399 9.98492 1.5 9 1.5ZM9 15C7.81332 15 6.65328 14.6481 5.66658 13.9888C4.67989 13.3295 3.91085 12.3925 3.45673 11.2961C3.0026 10.1997 2.88378 8.99334 3.11529 7.82946C3.3468 6.66557 3.91825 5.59647 4.75736 4.75736C5.59648 3.91824 6.66558 3.3468 7.82946 3.11529C8.99335 2.88378 10.1997 3.0026 11.2961 3.45672C12.3925 3.91085 13.3295 4.67988 13.9888 5.66658C14.6481 6.65327 15 7.81331 15 9C15 10.5913 14.3679 12.1174 13.2426 13.2426C12.1174 14.3679 10.5913 15 9 15Z" fill="#DF921E"/>
</svg>
